<?xml version="1.0" encoding="utf-8"?>
<!-- Generator: Adobe Illustrator 27.0.0, SVG Export Plug-In . SVG Version: 6.00 Build 0)  -->
<svg version="1.1" id="Capa_1" xmlns="http://www.w3.org/2000/svg" xmlns:xlink="http://www.w3.org/1999/xlink" x="0px" y="0px"
	 viewBox="0 0 24 24" style="enable-background:new 0 0 24 24;" xml:space="preserve">
<style type="text/css">
	.st0{fill-rule:evenodd;clip-rule:evenodd;fill:url(#SVGID_1_);}
	.st1{fill-rule:evenodd;clip-rule:evenodd;fill:url(#SVGID_00000173119098176851104710000000030171097135636107_);}
	
		.st2{fill-rule:evenodd;clip-rule:evenodd;fill:none;stroke:url(#SVGID_00000059290575669221316140000003835780268521545622_);stroke-width:2;stroke-miterlimit:10;}
</style>
<g>
	<linearGradient id="SVGID_1_" gradientUnits="userSpaceOnUse" x1="10.6659" y1="12.0669" x2="11.9761" y2="10.439">
		<stop  offset="0" style="stop-color:#A7B1FF"/>
		<stop  offset="0.3148" style="stop-color:#FFD0FD"/>
		<stop  offset="0.3405" style="stop-color:#FFCCF1"/>
		<stop  offset="0.4573" style="stop-color:#FFBDC1"/>
		<stop  offset="0.5738" style="stop-color:#FFB09A"/>
		<stop  offset="0.6876" style="stop-color:#FFA67B"/>
		<stop  offset="0.7982" style="stop-color:#FF9F65"/>
		<stop  offset="0.904" style="stop-color:#FF9A58"/>
		<stop  offset="1" style="stop-color:#FF9953"/>
	</linearGradient>
	<polygon class="st0" points="10.5,12.2 11.6,12.2 11,10.4 	"/>
	
		<linearGradient id="SVGID_00000174603441425765072460000002436846438448706469_" gradientUnits="userSpaceOnUse" x1="9.2279" y1="15.1294" x2="17.6595" y2="4.653">
		<stop  offset="0" style="stop-color:#A7B1FF"/>
		<stop  offset="0.3148" style="stop-color:#FFD0FD"/>
		<stop  offset="0.3405" style="stop-color:#FFCCF1"/>
		<stop  offset="0.4573" style="stop-color:#FFBDC1"/>
		<stop  offset="0.5738" style="stop-color:#FFB09A"/>
		<stop  offset="0.6876" style="stop-color:#FFA67B"/>
		<stop  offset="0.7982" style="stop-color:#FF9F65"/>
		<stop  offset="0.904" style="stop-color:#FF9A58"/>
		<stop  offset="1" style="stop-color:#FF9953"/>
	</linearGradient>
	<path style="fill-rule:evenodd;clip-rule:evenodd;fill:url(#SVGID_00000174603441425765072460000002436846438448706469_);" d="
		M13.5,7.3h-3.2c-2.5,0-4.5,2-4.5,4.5s2,4.5,4.5,4.5h3.2c2.5,0,4.5-2,4.5-4.5S16,7.3,13.5,7.3z M12.2,14.3c0-0.3-0.1-0.4-0.1-0.6
		l-0.2-0.5h-1.7L10,13.7c-0.1,0.2-0.1,0.4-0.1,0.6H8.5c0.1-0.2,0.1-0.3,0.3-0.7l1.3-3.5c0.1-0.3,0.2-0.5,0.2-0.6h1.5
		c0,0.2,0.1,0.3,0.2,0.6l1.3,3.5c0.1,0.3,0.2,0.6,0.3,0.7H12.2z M15.2,14.3h-1.3c0-0.2,0-0.5,0-0.9v-3.1c0-0.4,0-0.6,0-0.9h1.3
		c0,0.2,0,0.4,0,0.9v3.1C15.2,13.8,15.2,14,15.2,14.3z"/>
</g>
<linearGradient id="SVGID_00000101096779429298878480000016858147100101872790_" gradientUnits="userSpaceOnUse" x1="4.5041" y1="20.9989" x2="19.2382" y2="2.6914">
	<stop  offset="0" style="stop-color:#A7B1FF"/>
	<stop  offset="0.3148" style="stop-color:#FFD0FD"/>
	<stop  offset="1" style="stop-color:#FF9953"/>
</linearGradient>
<path style="fill-rule:evenodd;clip-rule:evenodd;fill:none;stroke:url(#SVGID_00000101096779429298878480000016858147100101872790_);stroke-width:2;stroke-miterlimit:10;" d="
	M11.9,22.6L11.9,22.6c5.9,0,10.7-4.8,10.7-10.7v0c0-5.9-4.8-10.7-10.7-10.7h0C5.9,1.1,1.1,5.9,1.1,11.8v0
	C1.1,17.8,5.9,22.6,11.9,22.6z"/>
</svg>
